<svg width="24" height="24" viewBox="0 0 24 24" fill="none" xmlns="http://www.w3.org/2000/svg">
<path d="M12 16.4447C14.4545 16.4447 16.4444 14.4548 16.4444 12.0002C16.4444 9.54563 14.4545 7.55579 12 7.55579C9.54539 7.55579 7.55554 9.54563 7.55554 12.0002C7.55554 14.4548 9.54539 16.4447 12 16.4447Z" stroke="white" stroke-width="2.3" stroke-linecap="round" stroke-linejoin="round"/>
<path d="M2 16.4444V7.55556C2 4.48731 4.48731 2 7.55556 2H16.4444C19.5127 2 22 4.48731 22 7.55556V16.4444C22 19.5127 19.5127 22 16.4444 22H7.55556C4.48731 22 2 19.5127 2 16.4444Z" stroke="white" stroke-width="2.5"/>
<path d="M18.1111 5.90059L18.1228 5.88757" stroke="white" stroke-width="2.5" stroke-linecap="round" stroke-linejoin="round"/>
</svg>
