<svg width="60" height="59" viewBox="0 0 60 59" fill="none" xmlns="http://www.w3.org/2000/svg">
<path d="M30 31.3714L10.5 19.387V15.6441L29.7382 27.4676L30 27.6285L30.2618 27.4676L50.2618 15.1759L51.7685 14.2499H50H10H9.5V14.7499V19.6666V19.9462V44.2499V44.7499H10H50H50.5V44.2499V19.6666V18.7724L49.7382 19.2406L30 31.3714ZM10 48.6666C8.75597 48.6666 7.70484 48.2366 6.81932 47.3658C5.93406 46.4953 5.5 45.4656 5.5 44.2499V14.7499C5.5 13.5342 5.93406 12.5045 6.81932 11.634C7.70484 10.7633 8.75597 10.3333 10 10.3333H50C51.244 10.3333 52.2952 10.7633 53.1807 11.634C54.0659 12.5045 54.5 13.5342 54.5 14.7499V44.2499C54.5 45.4656 54.0659 46.4953 53.1807 47.3658C52.2952 48.2366 51.244 48.6666 50 48.6666H10Z" fill="#1D1B20" stroke="black"/>
</svg>
